<?xml version="1.0" encoding="UTF-8"?>
<svg id="a" data-name="Layer 2" xmlns="http://www.w3.org/2000/svg" viewBox="0 0 284.248 361.111">
  <path d="M172.164,248.44H59.601c-7.591,0-13.745,6.154-13.745,13.745v23.154h119.606c2.617-2.617,4.085-4.085,6.702-6.702v-30.197Z" fill="#fff"/>
  <path d="M172.164,163.762H59.601c-7.591,0-13.745,6.154-13.745,13.745v23.154h119.606c2.617-2.617,4.085-4.085,6.702-6.702v-30.197Z" fill="#fff"/>
  <path d="M172.164,76.718H59.601c-7.591,0-13.745,6.154-13.745,13.745v23.154h119.606c2.617-2.617,4.085-4.085,6.702-6.702v-30.197Z" fill="#fff"/>
  <polygon points="203.386 76.718 238.392 48.808 238.392 282.973 203.386 312.303 203.386 76.718" fill="#ff1e2d"/>
</svg>